HIERARCHY
ROOT Hips
{
	OFFSET 0.00000 0.00000 0.00000
	CHANNELS 6 Xposition Yposition Zposition Yrotation Zrotation Xrotation 
	JOINT Lumbar
	{
		OFFSET 0 0 0
		CHANNELS 3 Zrotation Xrotation Yrotation
		JOINT Neck
		{
			OFFSET 0.00 0.2701 0.00
			CHANNELS 3 Zrotation Xrotation Yrotation
			End Site
			{
				OFFSET 0.00 0.1379 0.00
			}
		}
		JOINT RightShoulder
		{
			OFFSET 0.0119 0.2289 0.1181
			CHANNELS 3 Zrotation Xrotation Yrotation
			JOINT RightElbow
			{
				OFFSET 0.00 -0.1475 0.00
				CHANNELS 2 Zrotation Yrotation
				JOINT RightWrist
				{
					OFFSET 0.00 -0.1605 0.00
					CHANNELS 2 Zrotation Xrotation
					End Site
					{
						OFFSET 0.0040 -0.1068 0.0006
					}
				}
			}
		}
		JOINT LeftShoulder
		{
			OFFSET 0.0119 0.2289 -0.1181
			CHANNELS 3 Zrotation Xrotation Yrotation
			JOINT LeftElbow
			{
				OFFSET 0.00 -0.1475 0.00
				CHANNELS 2 Zrotation Yrotation
				JOINT LeftWrist
				{
					OFFSET 0.00 -0.1605 0.00
					CHANNELS 2 Zrotation Xrotation
					End Site
					{
						OFFSET 0.0040 -0.1068 -0.0006
					}
				}
			}
		}
	}
	JOINT RightHip
	{
		OFFSET 0.0316 -0.0424 0.0458
		CHANNELS 3 Zrotation Xrotation Yrotation
		JOINT RightKnee
		{
			OFFSET 0.00 -0.2438 0.00
			CHANNELS 1 Zrotation
			JOINT RightAnkle
			{
				OFFSET 0.00 -0.2449 0.00
				CHANNELS 3 Zrotation Xrotation Yrotation
				End Site
				{
					OFFSET 0.1237 -0.0542 0.0051
				}
			}
		}
	}
	JOINT LeftHip
	{
		OFFSET 0.0316 -0.0424 -0.0458
		CHANNELS 3 Zrotation Xrotation Yrotation
		JOINT LeftKnee
		{
			OFFSET 0.00 -0.2438 0.00
			CHANNELS 1 Zrotation
			JOINT LeftAnkle
			{
				OFFSET 0.00 -0.2449 0.00
				CHANNELS 3 Zrotation Xrotation Yrotation
				End Site
				{
					OFFSET 0.1237 -0.0542 -0.0051
				}
			}
		}
	}
}
MOTION
Frames: 32
Frame Time: 0.02
-0 0.57926 0 183.16477 0 3.72158 9.03602 -0.50564 -3.20337 -36.17748 1.15101 2.71947 28.31516 -12.52365 1.94924 10.00443 80.82745 0.83325 1.63612 27.66969 5.40096 -5.04459 6.40293 -76.81138 -5.75533 -0.53384 1.18637 3.13909 16.92483 -21.0431 12.09803 -9.6819 -12.24212 1.54086 -6.14568 -14.02699 -16.11927 7.53967 6.22517 10.5267
0.00034 0.5793 -0.00015 183.23402 0 3.72628 9.08647 -0.45675 -3.2168 -35.81646 0.94091 2.61593 27.84716 -12.11836 -0.53094 9.83461 81.15744 0.94165 1.63555 27.34146 5.65164 -5.4378 6.58834 -76.82544 -5.89766 -0.40379 1.26616 3.16826 16.97812 -21.16495 12.06895 -9.68195 -12.30002 1.57806 -6.13818 -14.09901 -16.10866 7.50338 6.19981 10.52628
0.00068 0.57934 -0.00031 183.30276 0 3.73095 9.13665 -0.40814 -3.23003 -35.45649 0.73247 2.51281 27.38071 -11.71636 -2.99283 9.66567 81.48506 1.04888 1.63509 27.01411 5.90082 -5.82841 6.77215 -76.83907 -6.03889 -0.27459 1.34548 3.19728 17.03072 -21.28567 12.0401 -9.68196 -12.35743 1.61534 -6.13066 -14.17048 -16.09838 7.46732 6.1747 10.52586
0.00102 0.57937 -0.00046 183.3706 0 3.73564 9.18608 -0.36026 -3.24271 -35.09679 0.52829 2.4099 26.91538 -11.32241 -5.41057 9.49909 81.80594 1.15228 1.63473 26.68644 6.14722 -6.21164 6.95167 -76.85195 -6.17735 -0.14717 1.42358 3.22577 17.08035 -21.40291 12.0122 -9.68193 -12.41352 1.65314 -6.12317 -14.2405 -16.08923 7.43187 6.15039 10.52509
0.00136 0.57941 -0.00061 183.44379 0 3.74034 9.23927 -0.30864 -3.25844 -34.73517 0.30114 2.30532 26.44349 -10.88446 -8.06797 9.32059 82.16193 1.27573 1.63342 26.35974 6.40924 -6.63296 7.15427 -76.86979 -6.33074 -0.00992 1.50798 3.25677 17.14485 -21.53842 11.97962 -9.68228 -12.47668 1.68804 -6.11573 -14.31824 -16.07396 7.39317 6.12187 10.52574
0.00171 0.57944 -0.00078 183.50521 0 3.74493 9.28461 -0.2649 -3.26765 -34.37831 0.12309 2.20476 25.98636 -10.5409 -10.21187 9.16706 82.4437 1.3568 1.63442 26.03181 6.63736 -6.974 7.30764 -76.87644 -6.45225 0.10614 1.5791 3.28262 17.1784 -21.63526 11.95675 -9.68171 -12.52481 1.72911 -6.10807 -14.37953 -16.07175 7.36139 6.10225 10.52367
0.00209 0.57944 -0.00098 183.53772 0 3.75004 9.30758 -0.24304 -3.25898 -34.02223 0.07819 2.10967 25.5553 -10.4503 -10.97888 9.08438 82.51749 1.31749 1.63944 25.68692 6.78008 -7.08852 7.32605 -76.85704 -6.48702 0.16709 1.61313 3.29293 17.11942 -21.62326 11.96295 -9.67966 -12.53136 1.78846 -6.10054 -14.3958 -16.10602 7.34867 6.10784 10.51142
0.00247 0.57942 -0.00119 183.55773 0 3.75489 9.32275 -0.2291 -3.24369 -33.6729 0.08322 2.01956 25.1415 -10.45613 -11.22107 9.02654 82.51693 1.23591 1.64708 25.34296 6.8873 -7.12297 7.29468 -76.82555 -6.48942 0.20614 1.63391 3.29829 17.03035 -21.57266 11.97865 -9.67656 -12.52273 1.8539 -6.09266 -14.39538 -16.15346 7.34293 6.12231 10.49691
0.00285 0.5794 -0.0014 183.58118 0 3.75931 9.34203 -0.2114 -3.23137 -33.32798 0.06703 1.93076 24.72867 -10.42294 -11.67707 8.95585 82.55251 1.17585 1.65523 25.00686 7.00548 -7.19739 7.28536 -76.79621 -6.5058 0.25299 1.66102 3.30679 16.95965 -21.54095 11.98841 -9.67317 -12.52111 1.91583 -6.08443 -14.40234 -16.19463 7.33401 6.13229 10.48515
0.00324 0.57938 -0.00161 183.61409 0 3.76604 9.35908 -0.19432 -3.21929 -32.95126 0.04483 1.82699 24.27817 -10.37019 -12.23587 8.8914 82.57838 1.10623 1.65677 24.63558 7.14516 -7.25683 7.27815 -76.78042 -6.52515 0.30868 1.68665 3.31156 16.86942 -21.50326 12.0046 -9.67271 -12.51909 1.98083 -6.07829 -14.41019 -16.23694 7.32512 6.14415 10.46609
0.00361 0.57937 -0.00182 183.6243 0 3.76792 9.37875 -0.1779 -3.20505 -32.64276 0.04675 1.75547 23.9109 -10.38022 -12.45751 8.82031 82.60649 1.04623 1.672 24.33816 7.232 -7.32821 7.2551 -76.73424 -6.53077 0.34106 1.7124 3.32288 16.81238 -21.4692 12.0102 -9.66628 -12.51422 2.04094 -6.06776 -14.41219 -16.28006 7.31784 6.15424 10.46171
0.00393 0.57939 -0.00206 183.5754 0 3.75614 9.40897 -0.16077 -3.18733 -32.51765 0.10496 1.7725 23.76356 -10.54702 -11.86273 8.72082 82.66197 1.0254 1.73034 24.24114 7.17894 -7.45478 7.19726 -76.60106 -6.50523 0.31172 1.74043 3.35394 16.85732 -21.45198 11.97943 -9.64048 -12.50612 2.08572 -6.04492 -14.40254 -16.32159 7.31308 6.15679 10.49805
0.00423 0.5794 -0.0023 183.50418 0 3.73958 9.44186 -0.14417 -3.16753 -32.46173 0.18518 1.82148 23.70058 -10.77207 -10.94903 8.61458 82.72174 1.01534 1.80132 24.21911 7.07473 -7.59594 7.12588 -76.43889 -6.46725 0.26017 1.76937 3.39169 16.93615 -21.44049 11.93862 -9.6094 -12.49566 2.12543 -6.01777 -14.3876 -16.36355 7.30972 6.15732 10.54917
0.00454 0.57942 -0.00254 183.44264 0 3.72532 9.47259 -0.12765 -3.14809 -32.37615 0.25425 1.85562 23.60252 -10.9662 -10.19087 8.51393 82.77761 0.9988 1.86251 24.16483 6.99532 -7.72831 7.06276 -76.29387 -6.43568 0.22054 1.79863 3.42614 16.99753 -21.42781 11.90548 -9.58264 -12.48548 2.16769 -5.99271 -14.37469 -16.40581 7.30587 6.15912 10.59389
0.00485 0.57944 -0.00278 183.38192 0 3.71029 9.50695 -0.10989 -3.1308 -32.28268 0.33056 1.89211 23.4907 -11.18363 -9.37102 8.40322 82.83909 0.9873 1.94059 24.10252 6.90689 -7.86575 6.98876 -76.13142 -6.39959 0.17242 1.82399 3.46155 17.06649 -21.40683 11.85935 -9.54731 -12.47747 2.20916 -5.96687 -14.3624 -16.44668 7.30173 6.15983 10.6377
0.00515 0.57945 -0.00302 183.31525 0 3.69602 9.53462 -0.09495 -3.10872 -32.2227 0.39556 1.93023 23.42809 -11.36366 -8.60901 8.3119 82.89091 0.96866 1.98681 24.07517 6.8271 -7.99867 6.93514 -75.99887 -6.37063 0.137 1.85828 3.49658 17.12813 -21.40625 11.83802 -9.52915 -12.46541 2.25095 -5.9419 -14.34826 -16.49008 7.29834 6.1621 10.68632
0.00547 0.57946 -0.00327 183.23077 0 3.68235 9.54204 -0.08568 -3.0729 -32.23261 0.43005 1.97304 23.47462 -11.43729 -8.10462 8.27242 82.91501 0.92576 1.93878 24.12293 6.77148 -8.10337 6.93916 -75.95337 -6.36264 0.1425 1.91319 3.52893 17.16007 -21.44961 11.88499 -9.55446 -12.43544 2.29554 -5.91823 -14.32698 -16.54305 7.2976 6.16995 10.75009
0.00579 0.57947 -0.00351 183.14306 0 3.67007 9.54295 -0.07951 -3.03239 -32.27518 0.45068 2.01457 23.56886 -11.46824 -7.67 8.25312 82.92957 0.87589 1.85878 24.20421 6.72931 -8.20605 6.96495 -75.93953 -6.36282 0.16171 1.97764 3.56056 17.18299 -21.51513 11.9575 -9.59796 -12.40284 2.34065 -5.89605 -14.30529 -16.59819 7.29738 6.1792 10.81719
0.0061 0.57948 -0.00375 183.06058 0 3.65891 9.54753 -0.07326 -2.99491 -32.30602 0.47381 2.05178 23.64508 -11.51155 -7.191 8.22677 82.94892 0.83069 1.79556 24.2717 6.68847 -8.31758 6.98208 -75.91297 -6.36052 0.17435 2.04057 3.59265 17.21209 -21.57849 12.02027 -9.63692 -12.37639 2.38486 -5.87451 -14.28527 -16.6502 7.29629 6.18727 10.87918
0.00643 0.57949 -0.004 182.95882 0 3.64029 9.54891 -0.06166 -2.9542 -32.32473 0.51509 2.11204 23.70853 -11.58858 -6.74734 8.19156 82.96662 0.77946 1.7235 24.33428 6.61218 -8.3946 6.99276 -75.87834 -6.35229 0.18715 2.09247 3.62488 17.23714 -21.61041 12.07568 -9.66105 -12.32924 2.43102 -5.84698 -14.25637 -16.71037 7.29791 6.19768 10.95686
0.00673 0.57949 -0.00423 182.90001 0 3.63748 9.55573 -0.06162 -2.91833 -32.37731 0.51333 2.12204 23.80911 -11.58208 -6.25923 8.17926 82.98522 0.73906 1.66179 24.41589 6.61638 -8.54469 7.02316 -75.86841 -6.35883 0.20376 2.16857 3.65599 17.26357 -21.71077 12.15148 -9.71913 -12.32422 2.47416 -5.83269 -14.24898 -16.75521 7.29401 6.20342 11.00249
0.00697 0.57945 -0.0044 182.93385 0 3.6789 9.57587 -0.09549 -2.90357 -32.50038 0.4098 2.0065 23.99755 -11.37531 -5.56174 8.22875 83.01068 0.72991 1.63908 24.52606 6.81608 -8.87812 7.09444 -75.91896 -6.40139 0.22213 2.31785 3.68901 17.33373 -22.014 12.28723 -9.87813 -12.43946 2.50199 -5.85164 -14.27557 -16.7479 7.27458 6.19722 10.95801
0.00719 0.57941 -0.00453 183.01677 0 3.736 9.60218 -0.14033 -2.89245 -32.65898 0.26068 1.83796 24.22178 -11.08198 -4.83149 8.29984 83.037 0.73199 1.62742 24.65701 7.10083 -9.28644 7.18624 -75.99324 -6.45894 0.24472 2.48952 3.71995 17.39801 -22.38179 12.44096 -10.06871 -12.59657 2.52836 -5.88457 -14.32892 -16.72721 7.24968 6.18596 10.88099
0.00742 0.57936 -0.00468 183.09406 0 3.78535 9.62795 -0.17837 -2.87557 -32.81065 0.12344 1.68488 24.43122 -10.81486 -4.16384 8.35898 83.06152 0.72903 1.60881 24.78812 7.36248 -9.6756 7.27432 -76.05705 -6.5117 0.26939 2.64521 3.74868 17.4406 -22.70727 12.57981 -10.23703 -12.73236 2.55954 -5.91287 -14.38636 -16.71822 7.22726 6.17625 10.81962
0.00767 0.57932 -0.00485 183.09823 0 3.83746 9.64446 -0.22432 -2.8766 -32.9241 0.02335 1.56768 24.63637 -10.6015 -3.29805 8.42841 83.09156 0.72528 1.59686 24.879 7.55948 -10.0109 7.3402 -76.12141 -6.55688 0.27876 2.8257 3.79087 17.58736 -23.08801 12.74722 -10.43869 -12.87778 2.57206 -5.93337 -14.37389 -16.68395 7.2045 6.17003 10.75576
0.00787 0.57928 -0.00495 183.26965 0 3.88744 9.68115 -0.25618 -2.84033 -33.12578 -0.16516 1.36379 24.85803 -10.25643 -2.83499 8.48057 83.11056 0.7263 1.57454 25.05927 7.91048 -10.4649 7.45602 -76.18887 -6.62044 0.31943 2.95977 3.80438 17.51385 -23.36904 12.85988 -10.57903 -13.01306 2.62456 -5.97412 -14.515 -16.70119 7.1816 6.15495 10.68806
0.00794 0.57927 -0.00485 183.86469 0 3.92763 9.77721 -0.24734 -2.70845 -33.55706 -0.5834 0.92797 25.11902 -9.56639 -3.50282 8.4856 83.09784 0.73462 1.51697 25.47195 8.67224 -11.32814 7.71272 -76.26734 -6.73903 0.45763 2.95973 3.74101 16.84937 -23.35557 12.8098 -10.53456 -13.11041 2.77691 -6.06151 -15.0599 -16.84928 7.15705 6.11958 10.62716
0.00798 0.57927 -0.00467 184.63211 0 3.96459 9.89216 -0.22323 -2.53769 -34.07685 -1.08968 0.40771 25.39496 -8.74743 -4.57401 8.4713 83.07431 0.74793 1.44947 25.97566 9.58506 -12.29172 8.0176 -76.34644 -6.87443 0.62495 2.91223 3.64897 15.95969 -23.23989 12.70514 -10.42856 -13.19597 2.97272 -6.16987 -15.76088 -17.05441 7.13391 6.07476 10.5609
0.00804 0.57926 -0.00452 185.3368 0 4.00373 9.99545 -0.20625 -2.37895 -34.55929 -1.55757 -0.07017 25.6618 -7.98936 -5.45413 8.46195 83.05638 0.76108 1.38919 26.44335 10.4242 -13.14129 8.29479 -76.41968 -6.99642 0.77079 2.88669 3.5683 15.16382 -23.17327 12.63013 -10.35581 -13.28685 3.15433 -6.27252 -16.39961 -17.24049 7.1107 6.03252 10.49195
0.00806 0.57927 -0.0044 185.97389 0 4.04262 10.11304 -0.19112 -2.24298 -35.03037 -2.01978 -0.56651 25.93847 -7.21866 -6.36901 8.46967 83.03527 0.76589 1.31776 26.88824 11.28654 -14.27372 8.59624 -76.51727 -7.14181 0.95122 2.86023 3.49268 14.40713 -23.09851 12.53557 -10.26216 -13.37974 3.30776 -6.35964 -17.00316 -17.38883 7.08128 5.99798 10.44697
0.00816 0.57925 -0.00421 186.79634 0 4.07829 10.20386 -0.16552 -2.05181 -35.54626 -2.51472 -1.04414 26.19919 -6.44464 -7.3038 8.43683 83.01859 0.78893 1.26718 27.40316 12.1366 -14.85057 8.85953 -76.564 -7.24414 1.06694 2.82417 3.40211 13.51124 -23.01483 12.46819 -10.1966 -13.46461 3.53611 -6.48377 -17.71603 -17.63983 7.06973 5.94442 10.34686
0.00846 0.57918 -0.00383 188.05204 0 4.12946 10.22788 -0.13921 -1.70491 -36.15844 -3.07225 -1.44525 26.39943 -5.69614 -8.22782 8.29781 83.01344 0.86246 1.27545 28.07856 12.9032 -13.77511 8.99509 -76.47049 -7.20732 0.99329 2.77289 3.25735 12.32195 -22.93773 12.49192 -10.22718 -13.53449 3.91116 -6.70536 -18.69481 -18.07197 7.06761 5.84664 10.13356
